<svg xmlns="http://www.w3.org/2000/svg" version="1.1" xmlns:xlink="http://www.w3.org/1999/xlink" xmlns:svgjs="http://svgjs.com/svgjs" width="85mm" height="95mm"><svg width="85mm" height="95mm" viewBox="0 0 85 95" version="1.1" id="SvgjsSvg1006" inkscape:version="1.1 (c68e22c387, 2021-05-23)" sodipodi:docname="fundoQuest_Favicon.svg" xmlns:inkscape="http://www.inkscape.org/namespaces/inkscape" xmlns:sodipodi="http://sodipodi.sourceforge.net/DTD/sodipodi-0.dtd" xmlns="http://www.w3.org/2000/svg" xmlns:svg="http://www.w3.org/2000/svg">
  <sodipodi:namedview id="SvgjsSodipodi:namedview1005" pagecolor="#ffffff" bordercolor="#666666" borderopacity="1.0" inkscape:pageshadow="2" inkscape:pageopacity="0.0" inkscape:pagecheckerboard="0" inkscape:document-units="mm" showgrid="false" inkscape:zoom="0.54342031" inkscape:cx="276.94953" inkscape:cy="451.76817" inkscape:window-width="1440" inkscape:window-height="837" inkscape:window-x="-8" inkscape:window-y="-8" inkscape:window-maximized="1" inkscape:current-layer="layer1" width="85mm" height="95mm"></sodipodi:namedview>
  <defs id="SvgjsDefs1004"></defs>
  <g inkscape:label="Camada 1" inkscape:groupmode="layer" id="SvgjsG1003">
    <g id="SvgjsG1002" transform="translate(-10.22459,-78.87541)">
      <path style="fill:#75704e;fill-opacity:1;stroke:none;stroke-width:0.19109" d="m 85.830316,100.42564 h -7.48334 c 0,-3.343226 0.58297,-7.527516 -2.55529,-9.496526 -1.359049,-0.852457 -2.875609,-0.706617 -4.380489,-0.706617 H 63.745327 38.74 c -3.46752,0 -8.2815,-0.93889 -11.49879,0.670807 -2.4215,1.21137 -2.73781,3.74536 -2.73781,6.33135 v 11.803646 16.00494 c 0,2.88589 -0.34789,6.22392 0.50905,9.00278 0.7142,2.31592 3.2673,4.38175 4.70666,6.20191 2.77358,3.50789 5.62291,6.94135 8.44303,10.40321 1.38625,1.70173 2.72029,3.869 4.4108,5.20161 0,-4.73866 -1.69726,-14.01953 2.55528,-16.97864 2.126552,-1.47966 4.906341,-1.02692 7.300827,-1.02692 h 17.15694 c 2.2691,0 5.26134,0.52437 7.115559,-1.24318 2.00572,-1.91219 1.64543,-4.73666 1.64543,-7.35947 2.68287,0.57018 4.80504,0.37912 7.48334,0 0,3.14477 0.18636,6.32695 -0.52858,9.4029 -1.30575,5.61793 -5.50737,5.60173 -9.87509,5.60173 H 58.634747 c -2.61388,0 -5.53128,-0.39792 -7.663125,1.64311 -1.838713,1.76034 -1.827944,4.10586 -1.827944,6.55942 v 10.00309 c 0,2.43695 0.01186,5.58652 -2.372768,6.72867 -2.19061,1.04933 -4.46208,-0.25588 -6.023,-1.93019 -3.34432,-3.58691 -6.31776,-7.64696 -9.50749,-11.40052 -2.93694,-3.45607 -5.88483,-6.90093 -8.77578,-10.40321 -1.54996,-1.87778 -3.37225,-3.60291 -4.2666,-6.00185 -1.73504,-4.65304 -0.81295,-10.86035 -0.81295,-15.80488 0,-10.56167 -0.46104,-21.26217 0.007,-31.809816 0.15296,-3.442267 2.70478,-6.752284 5.65084,-7.714381 1.71862,-0.561373 3.69988,-0.288089 5.47562,-0.288089 h 9.85611 32.671187 c 4.11676,0 9.774529,-1.022115 12.939799,2.609403 2.91613,3.34583 1.84437,9.776217 1.84437,13.995713 m -26.830529,9.49653 c 5.48931,1.10614 3.98552,10.28779 -1.46016,9.24345 -5.388741,-1.03332 -3.91397,-10.32618 1.46016,-9.24345 m -12.77644,-6e-4 c 5.548444,1.07513 4.092842,10.36421 -1.460167,9.21624 -5.33745,-1.10334 -3.84936,-10.24496 1.460167,-9.21624 z" id="SvgjsPath1001"></path>
      <ellipse style="fill:#cacc90;fill-opacity:1;fill-rule:evenodd;stroke-width:0.264583" id="SvgjsEllipse1000" cx="82.527046" cy="115.43407" rx="7.546721" ry="8.7639341"></ellipse>
    </g>
  </g>
</svg><style>@media (prefers-color-scheme: light) { :root { filter: none; } }
@media (prefers-color-scheme: dark) { :root { filter: contrast(0.8333333333333334) brightness(1.7); } }
</style></svg>