<?xml version="1.0" encoding="UTF-8" standalone="no"?>
<!-- Created with Inkscape (http://www.inkscape.org/) -->

<svg
   width="210mm"
   height="297mm"
   viewBox="0 0 210 297"
   version="1.1"
   id="svg6591"
   inkscape:version="1.1 (c68e22c387, 2021-05-23)"
   sodipodi:docname="fundoQuest.svg"
   xmlns:inkscape="http://www.inkscape.org/namespaces/inkscape"
   xmlns:sodipodi="http://sodipodi.sourceforge.net/DTD/sodipodi-0.dtd"
   xmlns="http://www.w3.org/2000/svg"
   xmlns:svg="http://www.w3.org/2000/svg">
  <sodipodi:namedview
     id="namedview6593"
     pagecolor="#ffffff"
     bordercolor="#666666"
     borderopacity="1.0"
     inkscape:pageshadow="2"
     inkscape:pageopacity="0.0"
     inkscape:pagecheckerboard="0"
     inkscape:document-units="mm"
     showgrid="false"
     inkscape:zoom="0.54342031"
     inkscape:cx="276.94953"
     inkscape:cy="543.77798"
     inkscape:window-width="1440"
     inkscape:window-height="837"
     inkscape:window-x="-8"
     inkscape:window-y="-8"
     inkscape:window-maximized="1"
     inkscape:current-layer="layer1" />
  <defs
     id="defs6588" />
  <g
     inkscape:label="Camada 1"
     inkscape:groupmode="layer"
     id="layer1">
    <g
       id="g1429"
       transform="translate(20.936066,-3.895082)">
      <path
         style="fill:#75704e;fill-opacity:1;stroke:none;stroke-width:0.19109"
         d="m 85.830316,100.42564 h -7.48334 c 0,-3.343226 0.58297,-7.527516 -2.55529,-9.496526 -1.359049,-0.852457 -2.875609,-0.706617 -4.380489,-0.706617 H 63.745327 38.74 c -3.46752,0 -8.2815,-0.93889 -11.49879,0.670807 -2.4215,1.21137 -2.73781,3.74536 -2.73781,6.33135 v 11.803646 16.00494 c 0,2.88589 -0.34789,6.22392 0.50905,9.00278 0.7142,2.31592 3.2673,4.38175 4.70666,6.20191 2.77358,3.50789 5.62291,6.94135 8.44303,10.40321 1.38625,1.70173 2.72029,3.869 4.4108,5.20161 0,-4.73866 -1.69726,-14.01953 2.55528,-16.97864 2.126552,-1.47966 4.906341,-1.02692 7.300827,-1.02692 h 17.15694 c 2.2691,0 5.26134,0.52437 7.115559,-1.24318 2.00572,-1.91219 1.64543,-4.73666 1.64543,-7.35947 2.68287,0.57018 4.80504,0.37912 7.48334,0 0,3.14477 0.18636,6.32695 -0.52858,9.4029 -1.30575,5.61793 -5.50737,5.60173 -9.87509,5.60173 H 58.634747 c -2.61388,0 -5.53128,-0.39792 -7.663125,1.64311 -1.838713,1.76034 -1.827944,4.10586 -1.827944,6.55942 v 10.00309 c 0,2.43695 0.01186,5.58652 -2.372768,6.72867 -2.19061,1.04933 -4.46208,-0.25588 -6.023,-1.93019 -3.34432,-3.58691 -6.31776,-7.64696 -9.50749,-11.40052 -2.93694,-3.45607 -5.88483,-6.90093 -8.77578,-10.40321 -1.54996,-1.87778 -3.37225,-3.60291 -4.2666,-6.00185 -1.73504,-4.65304 -0.81295,-10.86035 -0.81295,-15.80488 0,-10.56167 -0.46104,-21.26217 0.007,-31.809816 0.15296,-3.442267 2.70478,-6.752284 5.65084,-7.714381 1.71862,-0.561373 3.69988,-0.288089 5.47562,-0.288089 h 9.85611 32.671187 c 4.11676,0 9.774529,-1.022115 12.939799,2.609403 2.91613,3.34583 1.84437,9.776217 1.84437,13.995713 m -26.830529,9.49653 c 5.48931,1.10614 3.98552,10.28779 -1.46016,9.24345 -5.388741,-1.03332 -3.91397,-10.32618 1.46016,-9.24345 m -12.77644,-6e-4 c 5.548444,1.07513 4.092842,10.36421 -1.460167,9.21624 -5.33745,-1.10334 -3.84936,-10.24496 1.460167,-9.21624 z"
         id="path123" />
      <ellipse
         style="fill:#cacc90;fill-opacity:1;fill-rule:evenodd;stroke-width:0.264583"
         id="path437"
         cx="82.527046"
         cy="115.43407"
         rx="7.546721"
         ry="8.7639341" />
    </g>
    <path
       style="fill:#cacc90;fill-opacity:1;stroke:none;stroke-width:0.191089"
       d="m 105.70017,155.44367 h 7.48329 c 0,-3.34322 -0.58297,-7.52751 2.55527,-9.49652 1.35904,-0.85246 2.87559,-0.70662 4.38046,-0.70662 h 7.66583 25.00516 c 3.4675,0 8.28145,-0.93889 11.49872,0.67081 2.42148,1.21137 2.73779,3.74536 2.73779,6.33135 v 11.80364 16.00494 c 0,2.88589 0.34789,6.22392 -0.50905,9.00278 -0.71419,2.31593 -3.26728,4.38176 -4.70663,6.20191 -2.77356,3.5079 -5.62287,6.94135 -8.44297,10.40321 -1.38624,1.70173 -2.72028,3.869 -4.41077,5.20161 0,-4.73866 1.69724,-14.01953 -2.55527,-16.97864 -2.12654,-1.47966 -4.90631,-1.02692 -7.30078,-1.02692 h -17.15683 c -2.26909,0 -5.26131,0.52437 -7.11551,-1.24318 -2.00571,-1.91219 -1.64542,-4.73666 -1.64542,-7.35946 -2.68286,0.57017 -4.80501,0.37912 -7.48329,0 0,3.14476 -0.18636,6.32695 0.52857,9.40289 1.30574,5.61793 5.50734,5.60173 9.87503,5.60173 h 16.79179 c 2.61387,0 5.53125,-0.39792 7.66308,1.64312 1.8387,1.76034 1.82793,4.10586 1.82793,6.55941 v 10.0031 c 0,2.43694 -0.0119,5.58652 2.37275,6.72866 2.1906,1.04933 4.46205,-0.25587 6.02296,-1.93019 3.3443,-3.58691 6.31772,-7.64696 9.50743,-11.40052 2.93692,-3.45607 5.88479,-6.90093 8.77573,-10.40321 1.54995,-1.87778 3.37222,-3.60291 4.26657,-6.00185 1.73503,-4.65304 0.81294,-10.86035 0.81294,-15.80488 0,-10.56166 0.46104,-21.26216 -0.007,-31.80981 -0.15296,-3.44227 -2.70476,-6.75229 -5.6508,-7.71438 -1.71861,-0.56138 -3.69986,-0.28809 -5.47559,-0.28809 h -9.85604 -32.67098 c -4.11673,0 -9.77447,-1.02212 -12.93972,2.6094 -2.91611,3.34583 -1.84435,9.77622 -1.84435,13.99571 m 26.83036,9.49653 c -5.48928,1.10614 -3.9855,10.28779 1.46015,9.24345 5.3887,-1.03332 3.91394,-10.32618 -1.46015,-9.24345 m 12.77635,-6e-4 c -5.54841,1.07513 -4.09281,10.36421 1.46016,9.21624 5.33742,-1.10334 3.84934,-10.24496 -1.46016,-9.21624 z"
       id="path1431" />
    <ellipse
       style="fill:#75704e;fill-opacity:1;fill-rule:evenodd;stroke-width:0.264582"
       id="ellipse1433"
       cx="-109.00342"
       cy="170.4521"
       rx="7.5466719"
       ry="8.7639341"
       transform="scale(-1,1)" />
  </g>
</svg>
