<?xml version="1.0" encoding="UTF-8" standalone="no"?>
<!-- Created with Inkscape (http://www.inkscape.org/) -->

<svg
   width="157mm"
   height="75mm"
   viewBox="0 0 157 75"
   version="1.1"
   id="svg6591"
   inkscape:version="1.1 (c68e22c387, 2021-05-23)"
   sodipodi:docname="logo.svg"
   xmlns:inkscape="http://www.inkscape.org/namespaces/inkscape"
   xmlns:sodipodi="http://sodipodi.sourceforge.net/DTD/sodipodi-0.dtd"
   xmlns="http://www.w3.org/2000/svg"
   xmlns:svg="http://www.w3.org/2000/svg">
  <sodipodi:namedview
     id="namedview6593"
     pagecolor="#ffffff"
     bordercolor="#666666"
     borderopacity="1.0"
     inkscape:pageshadow="2"
     inkscape:pageopacity="0"
     inkscape:pagecheckerboard="0"
     inkscape:document-units="mm"
     showgrid="false"
     inkscape:zoom="1.0868406"
     inkscape:cx="432.90616"
     inkscape:cy="190.00026"
     inkscape:window-width="1440"
     inkscape:window-height="837"
     inkscape:window-x="-8"
     inkscape:window-y="-8"
     inkscape:window-maximized="1"
     inkscape:current-layer="layer1"
     width="157mm" />
  <defs
     id="defs6588" />
  <g
     inkscape:label="Camada 1"
     inkscape:groupmode="layer"
     id="layer1">
    <path
       id="path123"
       style="fill:#cacc90;fill-opacity:1;stroke:none;stroke-width:0.498183"
       transform="scale(0.26458333)"
       d="m 491.06055,4.5664062 c -4.88713,-0.029048 -9.76323,0.3222657 -14.03907,0.3222657 h -90.49023 -27.29687 c -4.9183,0 -10.40593,-0.6705763 -15.16602,0.7070312 -8.15974,2.360984 -15.22869,10.4843279 -15.65234,18.9316409 -1.29623,25.883905 -0.0195,52.14223 -0.0195,78.060546 0,12.13387 -2.55361,27.36661 2.25196,38.78516 2.47709,5.88699 7.52541,10.12044 11.81836,14.72851 8.0071,8.59459 16.1702,17.04811 24.30468,25.5293 8.83466,9.21123 17.07116,19.17624 26.33399,27.97852 4.32329,4.10874 10.61429,7.31138 16.68164,4.73632 6.6059,-2.80283 6.57227,-10.53145 6.57227,-16.51172 v -24.54882 c 0,-6.02104 -0.0302,-11.77584 5.0625,-16.09571 5.90455,-5.00868 13.98484,-4.0332 21.2246,-4.0332 h 46.50977 c 12.09729,0 23.73306,0.0403 27.34961,-13.74609 1.98013,-7.54838 1.46484,-15.35697 1.46484,-23.07422 -7.41815,0.93036 -13.29578,1.39922 -20.72656,0 0,6.43636 0.99862,13.36608 -4.55664,18.05859 -5.13574,4.33757 -13.42423,3.05078 -19.70898,3.05078 h -47.51954 c -6.63205,0 -14.33076,-1.1096 -20.2207,2.52149 -11.77829,7.26164 -7.07812,30.0354 -7.07812,41.66406 -4.68223,-3.27022 -8.37729,-8.58763 -12.2168,-12.76367 -7.81092,-8.49539 -15.70275,-16.92093 -23.38477,-25.5293 -3.98661,-4.46666 -11.05702,-9.53744 -13.03515,-15.2207 -2.37348,-6.81932 -1.41016,-15.00983 -1.41016,-22.0918 V 66.75 37.783203 c 0,-6.346017 0.87517,-12.564413 7.58203,-15.537109 8.91097,-3.950197 22.24559,-1.646485 31.84961,-1.646485 h 69.25586 21.23242 c 4.16814,0 8.3686,-0.357547 12.13282,1.734375 8.69204,4.831949 7.07812,15.100424 7.07812,23.304688 h 20.72656 c 0,-10.354626 2.9674,-26.135047 -5.10937,-34.345703 -5.47936,-5.56984 -13.65556,-6.6781489 -21.80078,-6.7265628 z M 397.55859,74.496094 c -0.23441,-8e-6 -0.3871,0.002 -0.2207,0.0098 0.0786,0.0037 0.14711,0.0039 0.2207,0.0059 -5.5e-4,-0.0052 5.6e-4,-0.01046 0,-0.01563 z m -2.43945,7.939453 c 0.0655,0.44076 0.15696,0.875309 0.27148,1.304687 0.0629,-0.492853 0.12693,-0.923936 0.17969,-1.214843 -0.15034,-0.02047 -0.3005,-0.05557 -0.45117,-0.08984 z" />
    <ellipse
       style="fill:#ffffff;fill-opacity:1;fill-rule:evenodd;stroke-width:0.179592"
       id="path437"
       cx="134.62572"
       cy="22.225025"
       rx="5.5303879"
       ry="5.5099864" />
    <text
       xml:space="preserve"
       style="font-style:normal;font-weight:normal;font-size:26.1798px;line-height:1.25;font-family:sans-serif;fill:#cacc90;fill-opacity:1;stroke:none;stroke-width:0.654504"
       x="-0.1783054"
       y="65.089493"
       id="text14884"
       transform="scale(0.91836576,1.0888908)"><tspan
         sodipodi:role="line"
         id="tspan14882"
         style="font-style:normal;font-variant:normal;font-weight:normal;font-stretch:normal;font-family:'Franklin Gothic Heavy';-inkscape-font-specification:'Franklin Gothic Heavy, ';fill:#cacc90;fill-opacity:1;stroke-width:0.654504"
         x="-0.1783054"
         y="65.089493">Question</tspan></text>
    <text
       xml:space="preserve"
       style="font-style:normal;font-weight:normal;font-size:34.9394px;line-height:1.25;font-family:sans-serif;fill:#a7cecb;fill-opacity:1;stroke:none;stroke-width:0.873484"
       x="138.14948"
       y="59.701859"
       id="text18754"
       transform="scale(0.83508563,1.197482)"><tspan
         sodipodi:role="line"
         id="tspan18752"
         style="font-style:normal;font-variant:normal;font-weight:normal;font-stretch:normal;font-family:'Franklin Gothic Heavy';-inkscape-font-specification:'Franklin Gothic Heavy, ';fill:#a7cecb;fill-opacity:1;stroke-width:0.873484"
         x="138.14948"
         y="59.701859">ME</tspan></text>
    <ellipse
       style="fill:#a7cecb;fill-opacity:1;stroke-width:0.409668"
       id="path27812"
       cx="105.7859"
       cy="18.986387"
       rx="3.2965562"
       ry="2.9191744" />
    <ellipse
       style="fill:#a7cecb;fill-opacity:1;stroke-width:0.409668"
       id="ellipse27894"
       cx="116.74082"
       cy="19.22983"
       rx="3.2965562"
       ry="2.9191744" />
    <ellipse
       style="fill:#ffffff;fill-opacity:1;fill-rule:evenodd;stroke-width:0.179592"
       id="ellipse43473"
       cx="109.06425"
       cy="65.71669"
       rx="5.5303879"
       ry="5.5099864" />
  </g>
</svg>
